<svg width="130" height="107" viewBox="0 0 130 107" fill="none" xmlns="http://www.w3.org/2000/svg">
<g clip-path="url(#clip0_58_304)">
<path d="M119.696 35.0981C119.46 34.757 119.102 34.5201 118.696 34.4365C118.29 34.3529 117.868 34.4291 117.516 34.6493C117.339 34.7589 117.186 34.9031 117.065 35.0733C116.945 35.2435 116.86 35.4362 116.815 35.64C116.771 35.8438 116.768 36.0544 116.806 36.2595C116.844 36.4645 116.923 36.6598 117.039 36.8336C123.511 46.9586 126.903 58.7514 126.802 70.7745C126.702 82.7976 123.112 94.5317 116.471 104.546C116.355 104.718 116.274 104.912 116.233 105.116C116.193 105.32 116.193 105.53 116.235 105.733C116.277 105.937 116.359 106.13 116.476 106.301C116.594 106.473 116.744 106.619 116.919 106.731C117.175 106.905 117.476 106.999 117.785 107C118.047 107.004 118.306 106.94 118.536 106.814C118.766 106.688 118.96 106.505 119.099 106.282C126.076 95.7497 129.842 83.4105 129.937 70.7701C130.033 58.1297 126.454 45.7349 119.637 35.0981H119.696Z" fill="#BBBCBD"/>
<path d="M28.7595 16.2475C28.5871 16.3619 28.4393 16.5096 28.3247 16.6821C28.21 16.8545 28.1309 17.0481 28.092 17.2515C28.0531 17.455 28.0551 17.6642 28.0979 17.8669C28.1407 18.0695 28.2235 18.2616 28.3414 18.4318C28.481 18.6448 28.6717 18.8194 28.8961 18.9396C29.1204 19.0598 29.3712 19.1218 29.6256 19.12C29.9445 19.1227 30.2567 19.0288 30.5215 18.8507C32.3432 17.6239 34.2247 16.5168 36.1659 15.4695L36.7333 15.1703V11.6096L35.1505 12.4175C32.9471 13.5675 30.813 14.8464 28.7595 16.2475Z" fill="#BBBCBD"/>
<path d="M93.4758 11.7292L91.9229 10.9812V14.512L92.5799 14.9608C95.8244 16.5374 98.9226 18.3998 101.838 20.5262C102.102 20.7354 102.427 20.8511 102.764 20.8554C103.014 20.8554 103.262 20.7958 103.485 20.6813C103.708 20.5669 103.901 20.4009 104.048 20.1971C104.294 19.8612 104.401 19.4431 104.346 19.0301C104.284 18.6036 104.059 18.2178 103.719 17.953C100.498 15.5741 97.0701 13.4911 93.4758 11.7292Z" fill="#BBBCBD"/>
<path d="M11.1099 33.8713C4.91939 43.0755 1.17653 53.7107 0.235812 64.7696C-0.704902 75.8285 1.18767 86.9449 5.73428 97.0659C5.85674 97.3439 6.05774 97.5798 6.31247 97.7447C6.56721 97.9095 6.86454 97.996 7.16778 97.9935H7.61575H7.8248C8.20389 97.8177 8.49825 97.4989 8.64371 97.1065C8.78916 96.7142 8.7739 96.2801 8.60127 95.899C4.26294 86.2543 2.45494 75.6594 3.34866 65.1184C4.24237 54.5775 7.80819 44.4399 13.7081 35.6666C13.9428 35.3149 14.0385 34.8883 13.9769 34.4697C13.9497 34.1256 13.8113 33.7998 13.5825 33.5417C13.3538 33.2836 13.0472 33.1073 12.7094 33.0396C12.3716 32.972 12.0209 33.0165 11.7107 33.1666C11.4005 33.3167 11.1476 33.5641 10.9904 33.8713H11.1099Z" fill="#BBBCBD"/>
<path fill-rule="evenodd" clip-rule="evenodd" d="M35.658 60.4119V0H92.9977V83.2721H35.658V60.4119ZM39.6897 52.1535V54.637H88.7271V52.1535H39.6897ZM39.6897 46.1692V48.6527H88.7271V46.0794L39.6897 46.1692ZM39.6897 40.5439V42.9975H88.7271V40.5439H39.6897ZM39.6897 34.8887V37.3722H88.7271V34.8887H39.6897ZM39.6897 29.2634V31.7469H88.7271V29.1737L39.6897 29.2634ZM39.6897 23.6381V26.0319H88.7271V23.5484L39.6897 23.6381ZM39.6897 18.0129V20.4664H80.3949V17.953L39.6897 18.0129Z" fill="#293842"/>
<path d="M75.6166 6.9718H48.9775V9.4553H75.6166V6.9718Z" fill="#293842"/>
<path fill-rule="evenodd" clip-rule="evenodd" d="M75.109 2.1543C78.0623 2.1543 80.9493 3.03174 83.4049 4.67566C85.8605 6.31957 87.7744 8.65614 88.9046 11.3899C90.0348 14.1236 90.3305 17.1317 89.7543 20.0339C89.1781 22.936 87.756 25.6018 85.6677 27.6941C83.5794 29.7864 80.9187 31.2113 78.0221 31.7885C75.1256 32.3658 72.1232 32.0695 69.3947 30.9372C66.6662 29.8048 64.3341 27.8873 62.6933 25.427C61.0525 22.9667 60.1768 20.0741 60.1768 17.1151C60.1768 13.1473 61.75 9.34193 64.5503 6.53623C67.3506 3.73053 71.1487 2.1543 75.109 2.1543Z" fill="#293842"/>
<path d="M75.109 32.4352C72.0836 32.4411 69.1244 31.5477 66.6059 29.8679C64.0875 28.1881 62.123 25.7976 60.9611 22.9987C59.7992 20.1999 59.4921 17.1187 60.0788 14.1449C60.6654 11.1712 62.1193 8.43863 64.2565 6.29311C66.3938 4.14759 69.1182 2.68553 72.0851 2.09198C75.052 1.49843 78.128 1.80006 80.9237 2.95871C83.7195 4.11735 86.1093 6.08092 87.7908 8.60091C89.4722 11.1209 90.3698 14.084 90.3698 17.1153C90.3619 21.1708 88.7525 25.0584 85.8931 27.9289C83.0337 30.7993 79.1568 32.4194 75.109 32.4352ZM75.109 2.51351C72.2148 2.51351 69.3855 3.3734 66.9791 4.98444C64.5726 6.59548 62.697 8.88531 61.5894 11.5644C60.4818 14.2434 60.192 17.1914 60.7566 20.0355C61.3213 22.8796 62.715 25.492 64.7615 27.5425C66.8081 29.593 69.4155 30.9893 72.2542 31.5551C75.0928 32.1208 78.0351 31.8304 80.7091 30.7207C83.383 29.611 85.6685 27.7318 87.2764 25.3207C88.8844 22.9096 89.7426 20.0749 89.7426 17.1751C89.7466 15.2458 89.3712 13.3346 88.6379 11.5506C87.9046 9.76668 86.8278 8.14489 85.4689 6.77787C84.1101 5.41086 82.4958 4.32538 80.7182 3.58344C78.9407 2.84149 77.0347 2.45759 75.109 2.45367V2.51351Z" fill="white"/>
<path fill-rule="evenodd" clip-rule="evenodd" d="M75.1092 3.3512C77.8263 3.3512 80.4823 4.15844 82.7415 5.67085C85.0006 7.18325 86.7614 9.33289 87.8012 11.8479C88.8409 14.363 89.113 17.1304 88.5829 19.8004C88.0529 22.4704 86.7445 24.9229 84.8232 26.8478C82.902 28.7727 80.4542 30.0836 77.7893 30.6147C75.1245 31.1458 72.3623 30.8732 69.8521 29.8314C67.3418 28.7897 65.1963 27.0255 63.6868 24.762C62.1773 22.4986 61.3716 19.8374 61.3716 17.1152C61.3716 13.4647 62.8189 9.96382 65.3952 7.38257C67.9716 4.80133 71.4658 3.3512 75.1092 3.3512Z" fill="#293842"/>
<path d="M75.1089 31.2083C72.3269 31.2083 69.6073 30.3818 67.2942 28.8332C64.981 27.2847 63.1781 25.0836 62.1135 22.5084C61.0488 19.9332 60.7703 17.0996 61.313 14.3658C61.8558 11.632 63.1954 9.12084 65.1626 7.14988C67.1298 5.17892 69.6362 3.83668 72.3647 3.2929C75.0933 2.74911 77.9215 3.0282 80.4918 4.09488C83.062 5.16155 85.2589 6.9679 86.8045 9.2855C88.3501 11.6031 89.1751 14.3279 89.1751 17.1152C89.1751 18.966 88.8112 20.7986 88.1043 22.5084C87.3974 24.2183 86.3613 25.7719 85.0552 27.0806C83.749 28.3892 82.1984 29.4273 80.4918 30.1356C78.7852 30.8438 76.9561 31.2083 75.1089 31.2083ZM75.1089 3.68038C72.4568 3.68038 69.8643 4.46832 67.6592 5.94456C65.4541 7.4208 63.7354 9.51904 62.7205 11.9739C61.7056 14.4288 61.44 17.1301 61.9574 19.7362C62.4748 22.3423 63.7519 24.7362 65.6272 26.6151C67.5025 28.494 69.8918 29.7735 72.4929 30.2919C75.094 30.8103 77.7902 30.5443 80.2404 29.5274C82.6906 28.5106 84.7848 26.7886 86.2582 24.5792C87.7316 22.3699 88.518 19.7724 88.518 17.1152C88.5102 13.5545 87.0949 10.1419 84.5819 7.62408C82.0689 5.10627 78.6628 3.68828 75.1089 3.68038Z" fill="white"/>
<path fill-rule="evenodd" clip-rule="evenodd" d="M74.8999 24.9547L71.4954 21.7232L74.8999 29.9517L78.3343 21.7232L74.8999 24.9547Z" fill="#293842"/>
<path d="M74.8999 30.7895L70.5994 20.4665L74.8999 24.5059L79.2003 20.4665L74.8999 30.7895ZM72.3614 23.0098L74.8999 28.9942L77.4383 23.0098L74.8999 25.4036L72.3614 23.0098Z" fill="white"/>
<path fill-rule="evenodd" clip-rule="evenodd" d="M74.8702 23.3688L70.3308 18.8506L70.2711 29.3831L66.0303 18.9105L65.8213 7.36071L74.8702 16.7262L83.8594 6.88196L83.9192 18.9105L79.5589 29.5327L79.4693 18.8506L74.8702 23.3688Z" fill="#293842"/>
<path d="M79.2303 31.1185V19.5987L74.8701 23.9373L70.6592 19.7483V31.1485L65.7017 18.9105L65.4927 6.55283L74.8701 16.2475L84.1878 5.98431V18.9105L79.2303 31.1185ZM79.7977 17.953V27.7972L83.6204 18.8506V7.68985L74.9597 17.175L74.6611 16.9357L66.1497 8.1686L66.3289 18.8506L69.9723 27.8272V18.1325L74.8104 22.9798L79.7977 17.953Z" fill="white"/>
<path fill-rule="evenodd" clip-rule="evenodd" d="M74.6314 14.5719L72.3915 12.2081L72.3318 10.7718H70.8386L66.6277 6.55286H74.6612H82.6948L78.5137 10.7718H76.9907L76.9309 12.2081L74.6314 14.5719Z" fill="#293842"/>
<path d="M74.6613 14.9609L72.1229 12.2679V11.0112H70.779L65.8513 6.22375H83.6207L78.6333 11.0711H77.2894V12.3278L74.6613 14.9609ZM72.75 11.9687L74.6613 14.0034L76.6025 11.9687V10.3529H78.2749L81.9184 6.88203H67.4043L70.9581 10.4427H72.6604L72.75 11.9687Z" fill="white"/>
</g>
<defs>
<clipPath id="clip0_58_304">
<rect width="130" height="107" fill="white"/>
</clipPath>
</defs>
</svg>
