<svg width="80" height="107" viewBox="0 0 80 107" fill="none" xmlns="http://www.w3.org/2000/svg">
<path fill-rule="evenodd" clip-rule="evenodd" d="M7.82124 13.0741C6.48028 13.0741 5.19424 13.6068 4.24604 14.555C3.29784 15.5032 2.76515 16.7892 2.76515 18.1302V99.0876C2.76515 100.429 3.29784 101.715 4.24604 102.663C5.19424 103.611 6.48028 104.144 7.82124 104.144H63.7973L77.1705 89.5139V18.1302C77.1706 16.7944 76.642 15.5129 75.7002 14.5655C74.7585 13.6182 73.4801 13.082 72.1444 13.0741H7.82124ZM64.6649 105.819H7.82124C6.02758 105.819 4.30603 105.113 3.02935 103.853C1.75267 102.593 1.0236 100.881 1 99.0876V18.1302C1 16.3211 1.71866 14.5861 2.9979 13.3069C4.27713 12.0276 6.01214 11.309 7.82124 11.309H72.1444C73.951 11.3168 75.6815 12.038 76.959 13.3156C78.2365 14.5931 78.9577 16.3235 78.9656 18.1302V90.202L64.6649 105.819Z" fill="#2A4759" stroke="#2A4759" stroke-width="0.96" stroke-miterlimit="10"/>
<path fill-rule="evenodd" clip-rule="evenodd" d="M64.1856 105.011H62.4204V87.9879H78.0674V89.783H64.1856V105.011Z" fill="#293842" stroke="#2A4759" stroke-width="1.65" stroke-miterlimit="10"/>
<path fill-rule="evenodd" clip-rule="evenodd" d="M37.3795 5.14585C37.3795 4.63106 37.5322 4.12782 37.8182 3.69979C38.1042 3.27175 38.5107 2.93814 38.9863 2.74114C39.4619 2.54413 39.9853 2.49259 40.4902 2.59302C40.9951 2.69345 41.4589 2.94135 41.8229 3.30536C42.1869 3.66938 42.4348 4.13316 42.5352 4.63806C42.6356 5.14296 42.5841 5.66631 42.3871 6.14191C42.1901 6.61752 41.8565 7.02403 41.4284 7.31003C41.0004 7.59604 40.4972 7.74869 39.9824 7.74869C39.2921 7.74869 38.63 7.47446 38.1419 6.98634C37.6538 6.49821 37.3795 5.83617 37.3795 5.14585ZM56.0183 7.74869H51.1417V1.22663C51.1341 0.903696 51.0024 0.596096 50.774 0.367685C50.5456 0.139275 50.238 0.00760151 49.9151 0L30.0497 0C29.7244 0 29.4124 0.129234 29.1823 0.359271C28.9523 0.589308 28.8231 0.901305 28.8231 1.22663V7.74869H23.9166C23.5936 7.75629 23.286 7.88797 23.0576 8.11638C22.8292 8.34479 22.6975 8.65239 22.6899 8.97532V17.6814C22.6898 18.0095 22.8181 18.3247 23.0473 18.5595C23.2766 18.7943 23.5885 18.9301 23.9166 18.9379H56.0183C56.3515 18.9379 56.6712 18.8055 56.9068 18.5699C57.1424 18.3342 57.2748 18.0146 57.2748 17.6814V8.97532C57.267 8.64727 57.1312 8.3353 56.8964 8.10609C56.6616 7.87687 56.3464 7.7486 56.0183 7.74869Z" fill="#C5C6C6"/>
<path fill-rule="evenodd" clip-rule="evenodd" d="M21.4344 79.4315H28.9736V71.8025H21.4344V79.3418V79.4315ZM29.8412 81.1967H20.5069C20.3905 81.2007 20.2744 81.1812 20.1657 81.1394C20.0569 81.0976 19.9577 81.0344 19.874 80.9534C19.7902 80.8724 19.7236 80.7754 19.6782 80.6682C19.6327 80.5609 19.6093 80.4456 19.6094 80.3291V71.0247C19.6094 70.7866 19.7039 70.5583 19.8723 70.39C20.0406 70.2217 20.2689 70.1271 20.5069 70.1271H29.7814C29.8993 70.1271 30.016 70.1503 30.1249 70.1955C30.2338 70.2406 30.3327 70.3067 30.4161 70.39C30.4994 70.4734 30.5655 70.5723 30.6106 70.6812C30.6557 70.7901 30.6789 70.9068 30.6789 71.0247V80.3291C30.6791 80.5541 30.5918 80.7704 30.4355 80.9322C30.2792 81.0941 30.0661 81.1889 29.8412 81.1967Z" fill="#C5C6C6"/>
<path fill-rule="evenodd" clip-rule="evenodd" d="M21.4334 96.6941H28.4641V89.7532H21.4334V96.7839V96.6941ZM29.3616 98.4593H20.506C20.3895 98.4633 20.2735 98.4438 20.1648 98.402C20.056 98.3602 19.9568 98.2969 19.873 98.216C19.7893 98.135 19.7227 98.038 19.6772 97.9307C19.6318 97.8235 19.6084 97.7081 19.6084 97.5916V88.7958C19.6043 88.6768 19.6246 88.5583 19.6683 88.4475C19.7119 88.3367 19.7778 88.2361 19.862 88.1519C19.9462 88.0677 20.0468 88.0017 20.1576 87.9581C20.2684 87.9145 20.387 87.8941 20.506 87.8983H29.4813C29.5978 87.8982 29.7131 87.9216 29.8204 87.9671C29.9276 88.0125 30.0246 88.0791 30.1056 88.1629C30.1866 88.2467 30.2499 88.3459 30.2917 88.4546C30.3335 88.5634 30.3529 88.6794 30.3489 88.7958V97.5916C30.3489 97.8217 30.2575 98.0424 30.0948 98.2051C29.9321 98.3679 29.7114 98.4593 29.4813 98.4593H29.3616Z" fill="#C5C6C6"/>
<path fill-rule="evenodd" clip-rule="evenodd" d="M25.323 79.1922L22.6304 76.2004C22.5324 76.118 22.4533 76.0157 22.3981 75.9002C22.343 75.7847 22.3132 75.6588 22.3107 75.5308C22.3082 75.4029 22.3332 75.2759 22.3838 75.1583C22.4345 75.0408 22.5096 74.9355 22.6043 74.8494C22.699 74.7633 22.811 74.6985 22.9328 74.6592C23.0546 74.62 23.1834 74.6072 23.3106 74.6218C23.4377 74.6365 23.5603 74.6781 23.67 74.744C23.7797 74.8098 23.8741 74.8984 23.9468 75.0037L25.4127 76.6193L35.7942 66.9857C35.8739 66.885 35.9743 66.8026 36.0885 66.744C36.2028 66.6854 36.3284 66.652 36.4567 66.646C36.585 66.6401 36.7131 66.6618 36.8323 66.7096C36.9515 66.7574 37.059 66.8303 37.1477 66.9233C37.2363 67.0162 37.3039 67.1271 37.346 67.2485C37.3881 67.3698 37.4037 67.4988 37.3917 67.6266C37.3796 67.7545 37.3403 67.8783 37.2763 67.9897C37.2124 68.1011 37.1252 68.1974 37.0208 68.2722L25.323 79.1922Z" fill="#C5C6C6"/>
<path fill-rule="evenodd" clip-rule="evenodd" d="M62.3904 76.5594H36.8107C36.6812 76.5833 36.548 76.5785 36.4206 76.5452C36.2932 76.5119 36.1747 76.451 36.0735 76.3668C35.9722 76.2825 35.8908 76.1771 35.8349 76.0578C35.779 75.9386 35.75 75.8085 35.75 75.6768C35.75 75.5451 35.779 75.4151 35.8349 75.2958C35.8908 75.1766 35.9722 75.0711 36.0735 74.9869C36.1747 74.9027 36.2932 74.8417 36.4206 74.8085C36.548 74.7752 36.6812 74.7703 36.8107 74.7943H62.3904C62.5199 74.7703 62.653 74.7752 62.7805 74.8085C62.9079 74.8417 63.0264 74.9027 63.1276 74.9869C63.2288 75.0711 63.3103 75.1766 63.3662 75.2958C63.4221 75.4151 63.4511 75.5451 63.4511 75.6768C63.4511 75.8085 63.4221 75.9386 63.3662 76.0578C63.3103 76.1771 63.2288 76.2825 63.1276 76.3668C63.0264 76.451 62.9079 76.5119 62.7805 76.5452C62.653 76.5785 62.5199 76.5833 62.3904 76.5594Z" fill="#C5C6C6"/>
<path fill-rule="evenodd" clip-rule="evenodd" d="M55.2408 94.0314H36.0037C35.7839 94.024 35.5751 93.9333 35.4196 93.7778C35.2641 93.6223 35.1735 93.4135 35.166 93.1937C35.166 92.9716 35.2543 92.7585 35.4114 92.6014C35.5685 92.4443 35.7815 92.356 36.0037 92.356H55.2408C55.3519 92.3518 55.4628 92.3706 55.5663 92.4113C55.6698 92.4519 55.7639 92.5134 55.8425 92.5921C55.9211 92.6707 55.9827 92.7647 56.0233 92.8683C56.0639 92.9718 56.0827 93.0826 56.0785 93.1937C56.0785 93.4159 55.9902 93.629 55.8331 93.7861C55.6761 93.9432 55.463 94.0314 55.2408 94.0314Z" fill="#C5C6C6"/>
</svg>
