<svg width="113" height="107" viewBox="0 0 113 107" fill="none" xmlns="http://www.w3.org/2000/svg">
<path fill-rule="evenodd" clip-rule="evenodd" d="M64.8616 67.2551C61.0266 70.619 56.28 72.77 51.2223 73.4359C46.1646 74.1019 41.023 73.2528 36.4479 70.9962C31.8727 68.7396 28.0697 65.1769 25.5197 60.7585C22.9697 56.3402 21.7874 51.2649 22.1223 46.1745C22.4572 41.0842 24.2942 36.2075 27.4011 32.1614C30.5079 28.1152 34.745 25.0814 39.5763 23.4436C44.4076 21.8059 49.6162 21.6378 54.543 22.9606C59.4699 24.2834 63.8938 27.0377 67.2551 30.8751C69.4892 33.4198 71.1997 36.38 72.2887 39.5863C73.3777 42.7927 73.8239 46.1824 73.6016 49.5613C73.3793 52.9403 72.4929 56.2423 70.9932 59.2784C69.4935 62.3144 67.4099 65.025 64.8616 67.2551ZM76.35 73.2386L88.736 74.7046L94.0314 63.994L85.3254 55.0187L85.9536 45.6545L95.7367 37.9357L91.9073 26.6268L79.4316 26.4473L73.2386 19.3867L74.7943 7.00075L63.994 1.70531L55.0187 10.4114L45.6245 9.7831L37.9357 0L26.6268 3.82947L26.4473 16.3052L19.3867 22.4981L7.00075 20.9424L1.70531 31.7427L10.4114 40.718L9.7831 50.0823L0 57.8011L3.82947 69.11L16.3052 69.2895L22.4981 76.35L20.9424 88.736L31.653 94.0314L40.6283 85.3254L49.9925 85.9536L57.8011 95.7367L69.11 91.9073L69.2895 79.4316L76.35 73.2386Z" fill="#242C32"/>
<path d="M49.0644 69.2296C43.399 69.2296 37.9657 66.979 33.9597 62.973C29.9537 58.967 27.7031 53.5337 27.7031 47.8683C27.7031 42.203 29.9537 36.7697 33.9597 32.7636C37.9657 28.7576 43.399 26.5071 49.0644 26.5071" stroke="#242C32" stroke-width="1.28" stroke-miterlimit="10"/>
<path opacity="0.5" fill-rule="evenodd" clip-rule="evenodd" d="M95.3474 89.9327C93.1454 91.8471 90.4259 93.0668 87.5318 93.4382C84.6376 93.8096 81.6983 93.3159 79.0843 92.0195C76.4702 90.7231 74.2984 88.682 72.8425 86.1533C71.3866 83.6246 70.7118 80.7215 70.9032 77.8099C71.0945 74.8983 72.1434 72.1085 73.9177 69.7921C75.692 67.4756 78.1122 65.7362 80.8734 64.7931C83.6347 63.8499 86.6133 63.7452 89.4339 64.4921C92.2546 65.239 94.791 66.8041 96.7236 68.9903C98.0159 70.4521 99.006 72.1553 99.6367 74.0018C100.267 75.8482 100.526 77.8012 100.398 79.7482C100.27 81.6951 99.7581 83.5975 98.8912 85.3455C98.0243 87.0935 96.8199 88.6525 95.3474 89.9327ZM101.929 93.3732L109.02 94.181L112.012 88.0478L107.045 82.9319L107.404 77.5467L112.999 73.1189L110.815 66.6567H103.665L100.104 62.6178L100.942 55.4974L94.8089 52.5056L89.7528 57.3523L84.3676 56.9932L79.9398 51.3687L73.4476 53.5826V60.733L69.3788 64.2633L62.2883 63.4256L59.2965 69.5587L64.1133 74.7943L63.7543 80.1795L58.1597 84.6073L60.3437 91.0695H67.494L71.0542 95.1084L70.2165 102.199L76.3496 105.191L81.4656 100.194L86.8508 100.553L91.2786 106.178L97.7707 103.964V96.8137L101.929 93.3732Z" fill="#6F6F6E"/>
</svg>
