<svg width="124" height="26" viewBox="0 0 124 26" fill="none" xmlns="http://www.w3.org/2000/svg">
<path d="M20.3121 4.59117H20.5863V25.7837H16.622V14.4223L10.422 21.0761H10.156L4.01421 14.4223V25.7837H0V4.59117H0.241019L10.2807 15.6865L20.3121 4.59117ZM34.2828 4.76583H30.2021L22.5311 25.7837H27.0606L32.2383 10.8125L37.3995 25.7837H41.929L34.2828 4.76583ZM56.2405 16.5515L44.1646 4.59117H43.8987V25.7837H47.8879V14.0064L59.9638 26H60.2298V4.76583H56.2405V16.5515ZM62.748 4.76583V8.60844H78.0319V4.76583H62.748ZM68.4078 25.7837H72.397V11.7274H68.4078V25.7837ZM88.8196 4.59117C82.7941 4.59117 78.6303 9.26551 78.6303 15.2956C78.6303 21.3257 82.7858 26 88.8196 26C94.8533 26 98.9756 21.3173 98.9756 15.2956C98.9756 9.27383 94.8201 4.59117 88.8196 4.59117ZM88.8196 22.0077C84.9799 22.0077 82.7027 19.1299 82.7027 15.2956C82.7027 11.4613 84.9799 8.57517 88.8196 8.57517C92.6592 8.57517 94.9032 11.453 94.9032 15.2956C94.9032 19.1382 92.626 22.0077 88.8196 22.0077ZM88.8196 13.2578C89.2219 13.2595 89.6148 13.3804 89.9485 13.6053C90.2823 13.8302 90.542 14.149 90.6948 14.5215C90.8477 14.894 90.8868 15.3035 90.8073 15.6982C90.7278 16.0929 90.5332 16.4553 90.2481 16.7394C89.963 17.0236 89.6002 17.2168 89.2055 17.2948C88.8107 17.3727 88.4017 17.3319 88.0301 17.1774C87.6585 17.0229 87.341 16.7617 87.1177 16.4268C86.8943 16.0919 86.7751 15.6983 86.7751 15.2956C86.774 15.027 86.8261 14.7608 86.9286 14.5125C87.0311 14.2643 87.1817 14.0388 87.3719 13.8493C87.5621 13.6597 87.788 13.5098 88.0365 13.4083C88.285 13.3068 88.5512 13.2556 88.8196 13.2578ZM112.581 25.7338H117.077L112.581 17.9405C113.808 17.4246 114.848 16.5443 115.56 15.4184C116.272 14.2925 116.621 12.9753 116.562 11.6443C116.562 7.80998 113.96 4.7492 109.281 4.7492H101.519V8.59181H109.19C109.609 8.55401 110.031 8.60551 110.428 8.74291C110.826 8.88031 111.19 9.10049 111.496 9.38893C111.802 9.67737 112.044 10.0275 112.205 10.4163C112.366 10.805 112.443 11.2236 112.431 11.6443C112.445 12.0673 112.37 12.4887 112.21 12.8806C112.05 13.2725 111.809 13.6261 111.503 13.9183C111.197 14.2105 110.833 14.4346 110.434 14.5759C110.035 14.7172 109.611 14.7726 109.19 14.7383H101.519V25.7837H105.55V18.5643H108.458L112.581 25.7338ZM121.075 5.44785H121.847L121.075 4.10876C121.288 4.02262 121.468 3.8722 121.592 3.67842C121.716 3.48464 121.776 3.25713 121.764 3.02751C121.77 2.86446 121.74 2.70212 121.678 2.55131C121.616 2.4005 121.523 2.26469 121.404 2.15293C121.285 2.04117 121.144 1.95602 120.99 1.90317C120.835 1.85033 120.672 1.83099 120.509 1.84645H119.18V2.4952H120.509C120.581 2.48802 120.654 2.49637 120.723 2.5197C120.791 2.54303 120.854 2.58079 120.907 2.63044C120.96 2.68009 121.001 2.74048 121.029 2.80754C121.056 2.87459 121.069 2.94676 121.066 3.01919C121.069 3.09194 121.056 3.16442 121.029 3.23185C121.001 3.29928 120.96 3.36014 120.907 3.41042C120.855 3.46071 120.792 3.49927 120.723 3.52359C120.655 3.54791 120.582 3.55742 120.509 3.5515H119.18V5.44785H119.861V4.21689H120.36L121.075 5.44785ZM120.509 7.52719C119.544 7.4946 118.63 7.08093 117.969 6.37653C117.307 5.67213 116.95 4.73425 116.977 3.76775C116.944 3.28315 117.011 2.79689 117.173 2.33917C117.336 1.88145 117.59 1.46205 117.922 1.10701C118.253 0.751979 118.653 0.468898 119.099 0.275353C119.544 0.081808 120.024 -0.0180664 120.509 -0.0180664C120.995 -0.0180664 121.475 0.081808 121.92 0.275353C122.365 0.468898 122.766 0.751979 123.097 1.10701C123.428 1.46205 123.683 1.88145 123.846 2.33917C124.008 2.79689 124.075 3.28315 124.042 3.76775C124.071 4.73486 123.715 5.67399 123.053 6.37888C122.39 7.08377 121.476 7.49677 120.509 7.52719ZM120.509 0.474086C120.09 0.490115 119.678 0.58906 119.296 0.765221C118.915 0.941382 118.573 1.19128 118.288 1.50052C118.004 1.80976 117.784 2.17223 117.64 2.56705C117.496 2.96187 117.432 3.38125 117.451 3.80102C117.429 4.21695 117.492 4.63293 117.637 5.02365C117.781 5.41436 118.003 5.77163 118.289 6.0737C118.576 6.37576 118.921 6.61631 119.303 6.78069C119.686 6.94507 120.097 7.02984 120.514 7.02984C120.93 7.02984 121.342 6.94507 121.724 6.78069C122.106 6.61631 122.451 6.37576 122.738 6.0737C123.024 5.77163 123.246 5.41436 123.391 5.02365C123.535 4.63293 123.598 4.21695 123.576 3.80102C123.594 3.38084 123.529 2.96127 123.384 2.5664C123.239 2.17153 123.018 1.80914 122.733 1.50002C122.448 1.1909 122.105 0.941144 121.724 0.765086C121.342 0.589028 120.929 0.490136 120.509 0.474086ZM119.18 4.67434H119.861V1.84645H119.18V4.67434Z" fill="white"/>
</svg>
