<svg width="135" height="94" viewBox="0 0 135 94" fill="none" xmlns="http://www.w3.org/2000/svg">
<path fill-rule="evenodd" clip-rule="evenodd" d="M54.0741 27.9957C56.8536 27.7584 59.499 26.6942 61.6707 24.9396C63.8423 23.185 65.4411 20.8202 66.2617 18.1486C67.0824 15.477 67.0875 12.6206 66.2765 9.94601C65.4654 7.27146 63.8752 4.90083 61.7099 3.13842C59.5445 1.37601 56.903 0.302256 54.1243 0.0549839C51.3456 -0.192288 48.5565 0.398209 46.1152 1.75068C43.6738 3.10314 41.6915 5.15586 40.4228 7.64533C39.154 10.1348 38.6567 12.9474 38.9947 15.7221C39.4524 19.3177 41.2743 22.5987 44.0821 24.8841C46.8899 27.1694 50.4681 28.2837 54.0741 27.9957Z" fill="#242C31"/>
<path fill-rule="evenodd" clip-rule="evenodd" d="M26.455 24.921C28.975 24.3984 31.2022 22.9346 32.6844 20.8267C34.1667 18.7187 34.7929 16.1246 34.4361 13.5709C34.0792 11.0171 32.766 8.69514 30.7629 7.07622C28.7598 5.4573 26.2171 4.66276 23.6507 4.85387C21.9668 5.04955 20.3588 5.66547 18.9739 6.64522C17.5891 7.62497 16.4717 8.93723 15.7241 10.4618C14.9765 11.9864 14.6226 13.6745 14.6949 15.3717C14.7671 17.0688 15.2631 18.7207 16.1375 20.1759C17.1879 21.9087 18.732 23.2866 20.5708 24.1323C22.4096 24.978 24.459 25.2527 26.455 24.921Z" fill="#242C31"/>
<path fill-rule="evenodd" clip-rule="evenodd" d="M85.1323 24.2582C87.0793 23.4346 88.7197 22.02 89.8227 20.2135C90.9256 18.407 91.4355 16.2994 91.2807 14.1874C91.1259 12.0753 90.3141 10.065 88.9597 8.43932C87.6052 6.81364 85.7762 5.65439 83.7299 5.12465C81.6836 4.59492 79.5231 4.72137 77.5522 5.48621C75.5814 6.25105 73.8995 7.61579 72.7431 9.38842C71.5867 11.1611 71.0141 13.2524 71.1057 15.3681C71.1973 17.4839 71.9487 19.5176 73.254 21.1832C74.6232 22.9303 76.5277 24.1778 78.6742 24.7335C80.8206 25.2892 83.0899 25.1222 85.1323 24.2582Z" fill="#242C31"/>
<path fill-rule="evenodd" clip-rule="evenodd" d="M6.11117 53.6565C8.25403 55.6447 10.8202 57.1557 12.963 59.1703L13.2276 62.0068L21.9577 58.9848L28.0424 56.8906L28.6244 57.3677L49.18 74.2008L50.053 74.943L51.6403 74.3333L69.18 67.5736L82.1429 62.59L94.1006 58.0039C95.9524 56.4664 97.9366 55.035 99.8678 53.524C99.8678 46.3666 99.8678 39.1562 99.8678 31.9989C95.8202 31.1241 91.9313 30.3288 87.7249 29.5601C85.5292 32.8737 83.4392 36.2668 81.217 39.5273C78.9419 36.2668 76.8784 32.8471 74.6561 29.5601C70.635 30.3288 66.7196 31.1241 62.5397 31.9724C59.2858 37.0885 56.1112 41.9661 52.9101 46.9233C49.7355 41.9927 46.6403 37.009 43.4657 32.0784C39.418 31.2566 35.3704 30.4348 31.3493 29.6661C29.1006 32.9532 27.0371 36.3993 24.762 39.7394C22.5662 36.4258 20.4498 33.0592 18.2805 29.7191C14.2064 30.4614 10.1588 31.3361 6.08472 32.1314C6.11117 39.2623 6.05826 46.4726 6.11117 53.6565Z" fill="#242C31"/>
<path fill-rule="evenodd" clip-rule="evenodd" d="M101.455 45.969L105.926 57.2617L105.238 57.5268L94.1005 61.8742L82.1429 66.4868L69.2064 71.4704L51.6402 78.2036L50.0529 78.8133L49.1799 78.0976L28.6772 61.1585L28.0952 60.6813L22.0106 62.7755L13.2804 65.771L0.0529101 70.3305L0 70.357V85.0164L14.8148 79.9532L23.836 76.8782L25.1323 76.4275L25.7672 76.9842L34.3651 84.1151L39.4709 88.383L46.1905 93.9763L66.5079 86.3418L71.6667 84.4067L84.0476 79.7411L84.709 79.5025L91.5873 76.9047L109.762 70.0654L115.106 81.3582L135 51.3238L101.455 45.969Z" fill="#242C31"/>
</svg>
