<svg width="161" height="87" viewBox="0 0 161 87" fill="none" xmlns="http://www.w3.org/2000/svg">
<path fill-rule="evenodd" clip-rule="evenodd" d="M1 52.1612V83.3424C1.00626 84.0211 1.27866 84.6703 1.75861 85.1502C2.23857 85.6302 2.88772 85.9026 3.56645 85.9088H21.3637C22.0424 85.9026 22.6916 85.6302 23.1716 85.1502C23.6515 84.6703 23.9239 84.0211 23.9302 83.3424V42.8548L1 52.1612Z" fill="#293842" stroke="white" stroke-width="0.57" stroke-miterlimit="22.93"/>
<path fill-rule="evenodd" clip-rule="evenodd" d="M32.8057 42.567V83.3424C32.8057 84.023 33.0761 84.6758 33.5574 85.1571C34.0387 85.6384 34.6914 85.9088 35.3721 85.9088H53.0974C53.7762 85.9025 54.4253 85.6302 54.9053 85.1502C55.3852 84.6702 55.6576 84.0211 55.6639 83.3424V59.3568L32.8057 42.567Z" fill="#C1C0BF"/>
<path fill-rule="evenodd" clip-rule="evenodd" d="M64.5859 56.7905V83.3425C64.5859 84.0231 64.8563 84.6759 65.3376 85.1572C65.8189 85.6385 66.4717 85.9089 67.1524 85.9089H84.9257C85.6063 85.9089 86.2591 85.6385 86.7404 85.1572C87.2217 84.6759 87.4921 84.0231 87.4921 83.3425V34.388L67.1044 54.7517C66.3443 55.524 65.4995 56.2079 64.5859 56.7905Z" fill="#293842" stroke="white" stroke-width="0.57" stroke-miterlimit="22.93"/>
<path fill-rule="evenodd" clip-rule="evenodd" d="M117.57 4.28601L96.271 25.4892V83.3423C96.271 84.023 96.5414 84.6758 97.0227 85.1571C97.504 85.6384 98.1568 85.9088 98.8374 85.9088H116.611C117.291 85.9088 117.944 85.6384 118.425 85.1571C118.907 84.6758 119.177 84.023 119.177 83.3423V5.89304L117.858 4.66978L117.57 4.28601Z" fill="#C1C0BF"/>
<path fill-rule="evenodd" clip-rule="evenodd" d="M120.617 1L125.821 14.192L125.054 14.5039L112.006 19.5888L97.9982 24.9615L82.8633 30.766L62.3557 38.6333L60.4848 39.3529L59.4534 38.4894L35.4679 18.7253L34.7723 18.1736L27.6726 20.6202L17.4547 24.1221L1.98407 29.4468L1.91211 29.4708V46.5965L19.2537 40.6961L29.8073 37.0982L31.3184 36.5705L32.0619 37.1942L42.1119 45.5411L48.1082 50.5301L55.9755 57.0542L79.7212 48.1316L85.7655 45.8769L100.229 40.4322L101.02 40.1444L109.055 37.1222L130.331 29.135L136.591 42.3271L159.857 7.23624L120.617 1Z" fill="#293842" stroke="white" stroke-width="0.57" stroke-miterlimit="22.93"/>
</svg>
