<svg width="68" height="90" viewBox="0 0 68 90" fill="none" xmlns="http://www.w3.org/2000/svg">
<path fill-rule="evenodd" clip-rule="evenodd" d="M66.3641 76.3613V16.1357C66.3641 14.8139 65.8354 13.5458 64.8936 12.6087C63.9518 11.6715 62.6735 11.1415 61.3381 11.1345H6.77437C5.43895 11.1415 4.16064 11.6715 3.21885 12.6087C2.27706 13.5458 1.74839 14.8139 1.74841 16.1357V84.088C1.74841 84.7413 1.87841 85.3882 2.13099 85.9917C2.38357 86.5953 2.75378 87.1437 3.22048 87.6056C3.68719 88.0676 4.24124 88.434 4.85102 88.684C5.4608 88.934 6.11435 89.0627 6.77437 89.0627H54.5477L66.3641 76.3613Z" fill="#242C31" stroke="#242C31" stroke-width="1.66" stroke-miterlimit="10"/>
<path fill-rule="evenodd" clip-rule="evenodd" d="M6.77451 11.955C5.65137 11.9617 4.57537 12.4027 3.7762 13.1838C2.97703 13.9649 2.518 15.0243 2.49709 16.1358V84.0882C2.49709 85.211 2.94775 86.2879 3.74992 87.0819C4.55209 87.8759 5.64007 88.3219 6.77451 88.3219H54.2003L65.5355 76.0704V16.1358C65.5355 15.0105 65.0857 13.9309 64.2843 13.1327C63.4828 12.3345 62.3949 11.8826 61.258 11.8756L6.77451 11.955ZM54.8954 89.8038H6.77451C6.01619 89.8038 5.26529 89.6559 4.5647 89.3687C3.8641 89.0815 3.22753 88.6605 2.69131 88.1297C1.60838 87.0578 1 85.604 1 84.0882V16.1358C1.021 14.6313 1.6378 13.1951 2.71771 12.1361C3.79762 11.0771 5.25435 10.4799 6.77451 10.4731H61.258C62.7782 10.4799 64.2349 11.0771 65.3148 12.1361C66.3947 13.1951 67.0115 14.6313 67.0325 16.1358V76.6526L54.8954 89.8038Z" fill="#242C31" stroke="#242C31" stroke-width="0.22" stroke-miterlimit="10"/>
<path fill-rule="evenodd" clip-rule="evenodd" d="M31.8239 5.33963C31.8239 4.91048 31.9525 4.49097 32.1934 4.13415C32.4343 3.77732 32.7766 3.49921 33.1772 3.33498C33.5778 3.17076 34.0185 3.12779 34.4438 3.21151C34.869 3.29523 35.2596 3.50189 35.5662 3.80534C35.8728 4.1088 36.0816 4.49542 36.1661 4.91632C36.2507 5.33723 36.2073 5.7735 36.0414 6.16999C35.8755 6.56647 35.5945 6.90535 35.234 7.14377C34.8735 7.38219 34.4497 7.50945 34.0161 7.50945C33.7282 7.50945 33.4432 7.45333 33.1772 7.34428C32.9112 7.23524 32.6696 7.07541 32.466 6.87393C32.2624 6.67244 32.101 6.43324 31.9908 6.16999C31.8806 5.90673 31.8239 5.62458 31.8239 5.33963ZM47.6503 7.50945H43.4799V2.05845C43.4834 1.92071 43.4591 1.78367 43.4083 1.65539C43.3575 1.52712 43.2813 1.41021 43.1841 1.31156C43.0869 1.21291 42.9708 1.13452 42.8425 1.08101C42.7142 1.0275 42.5764 0.999955 42.4372 1H25.6217C25.3381 1 25.0661 1.11151 24.8655 1.31001C24.665 1.50851 24.5523 1.77773 24.5523 2.05845V7.50945H20.4353C20.2974 7.50581 20.1602 7.53001 20.032 7.58059C19.9038 7.63116 19.7874 7.70704 19.6899 7.8036C19.5923 7.90017 19.5157 8.01539 19.4646 8.14224C19.4135 8.2691 19.389 8.40492 19.3927 8.54144V15.8447C19.3927 16.1184 19.5025 16.3809 19.6981 16.5744C19.8936 16.768 20.1588 16.8767 20.4353 16.8767H47.6503C47.9247 16.87 48.186 16.7591 48.3801 16.567C48.5742 16.3749 48.6862 16.1163 48.693 15.8447V8.54144C48.693 8.26774 48.5831 8.00525 48.3876 7.81171C48.1921 7.61818 47.9269 7.50945 47.6503 7.50945Z" fill="#242C31" stroke="#242C31" stroke-width="0.57" stroke-miterlimit="22.93"/>
<path fill-rule="evenodd" clip-rule="evenodd" d="M18.2433 67.6026H24.6862V61.3048H18.2433V67.6026ZM25.4347 69.058H17.575C17.4744 69.058 17.3748 69.038 17.2822 68.9991C17.1896 68.9603 17.1059 68.9033 17.036 68.8317C16.9661 68.7601 16.9116 68.6752 16.8756 68.5823C16.8396 68.4893 16.8228 68.3901 16.8264 68.2906V60.5639C16.8227 60.4656 16.8395 60.3676 16.8758 60.2761C16.9121 60.1845 16.9671 60.1013 17.0373 60.0318C17.1076 59.9622 17.1916 59.9078 17.2842 59.8718C17.3767 59.8359 17.4757 59.8193 17.575 59.823H25.4347C25.534 59.8193 25.6331 59.8359 25.7256 59.8718C25.8181 59.9078 25.9021 59.9622 25.9724 60.0318C26.0427 60.1013 26.0977 60.1845 26.1339 60.2761C26.1702 60.3676 26.187 60.4656 26.1833 60.5639V68.3435C26.1764 68.5354 26.0944 68.7171 25.9548 68.8504C25.8152 68.9837 25.6287 69.0581 25.4347 69.058Z" fill="white"/>
<path fill-rule="evenodd" clip-rule="evenodd" d="M18.2433 82.0769H24.2584V76.2026H18.2433V82.0769ZM24.9535 83.5852H17.575C17.3765 83.5852 17.1861 83.5072 17.0457 83.3682C16.9053 83.2293 16.8264 83.0408 16.8264 82.8443V75.4616C16.8227 75.3633 16.8395 75.2653 16.8758 75.1738C16.9121 75.0822 16.9671 74.999 17.0373 74.9295C17.1076 74.8599 17.1916 74.8055 17.2842 74.7696C17.3767 74.7336 17.4757 74.717 17.575 74.7207H25.0337C25.2323 74.7207 25.4226 74.7988 25.563 74.9377C25.7034 75.0767 25.7823 75.2651 25.7823 75.4616V82.8443C25.7756 83.0387 25.6946 83.2234 25.5556 83.3609C25.4167 83.4984 25.2301 83.5786 25.0337 83.5852H24.9535Z" fill="white"/>
<path fill-rule="evenodd" clip-rule="evenodd" d="M21.6117 67.4175L19.3393 64.9566C19.2682 64.8876 19.2117 64.8052 19.1731 64.7144C19.1345 64.6235 19.1146 64.5259 19.1146 64.4274C19.1146 64.3288 19.1345 64.2312 19.1731 64.1403C19.2117 64.0495 19.2682 63.9671 19.3393 63.8981C19.479 63.764 19.666 63.6889 19.8606 63.6889C20.0552 63.6889 20.2422 63.764 20.3819 63.8981L21.6384 65.2476L30.4338 57.3093C30.5035 57.2389 30.5867 57.183 30.6785 57.1448C30.7703 57.1066 30.8689 57.0869 30.9685 57.0869C31.0681 57.0869 31.1667 57.1066 31.2585 57.1448C31.3503 57.183 31.4335 57.2389 31.5032 57.3093C31.6405 57.452 31.7171 57.6415 31.7171 57.8385C31.7171 58.0356 31.6405 58.2251 31.5032 58.3677L21.6117 67.4175Z" fill="white"/>
<path fill-rule="evenodd" clip-rule="evenodd" d="M52.9972 65.1948H31.3428C31.2423 65.1983 31.142 65.1818 31.0481 65.1462C30.9542 65.1105 30.8685 65.0565 30.7961 64.9874C30.7238 64.9182 30.6662 64.8353 30.6269 64.7437C30.5877 64.652 30.5674 64.5534 30.5675 64.4539C30.5874 64.2644 30.6778 64.089 30.8211 63.9619C30.9644 63.8347 31.1503 63.7649 31.3428 63.7659H52.9972C53.1936 63.7725 53.3801 63.8527 53.5191 63.9902C53.6581 64.1277 53.7391 64.3124 53.7457 64.5068C53.7322 64.694 53.6474 64.8691 53.5085 64.9968C53.3695 65.1245 53.1868 65.1953 52.9972 65.1948Z" fill="white"/>
<path fill-rule="evenodd" clip-rule="evenodd" d="M46.9554 79.8544H30.6478C30.4834 79.8226 30.3353 79.7353 30.2289 79.6074C30.1224 79.4795 30.0642 79.3189 30.0642 79.1532C30.0642 78.9874 30.1224 78.8269 30.2289 78.6989C30.3353 78.571 30.4834 78.4837 30.6478 78.4519H46.9554C47.0599 78.4318 47.1677 78.4347 47.2709 78.4606C47.3742 78.4865 47.4704 78.5347 47.5526 78.6017C47.6348 78.6687 47.701 78.7529 47.7464 78.8483C47.7919 78.9436 47.8155 79.0477 47.8155 79.1532C47.8155 79.2586 47.7919 79.3627 47.7464 79.4581C47.701 79.5534 47.6348 79.6376 47.5526 79.7046C47.4704 79.7717 47.3742 79.8198 47.2709 79.8457C47.1677 79.8716 47.0599 79.8746 46.9554 79.8544Z" fill="white"/>
</svg>
