<svg width="106" height="22" viewBox="0 0 106 22" fill="none" xmlns="http://www.w3.org/2000/svg">
<path d="M17.3635 3.88483H17.598V21.817H14.2091V12.2035L8.90912 17.8337H8.68177L3.4315 12.2035V21.817H0V3.88483H0.206032L8.78834 13.2732L17.3635 3.88483ZM29.3063 4.03263H25.818L19.2605 21.817H23.1324L27.5586 9.14907L31.9705 21.817H35.8425L29.3063 4.03263ZM48.0765 14.0051L37.7536 3.88483H37.5263V21.817H40.9365V11.8516L51.2594 22H51.4867V4.03263H48.0765V14.0051ZM53.6394 4.03263V7.28407H66.7047V4.03263H53.6394ZM58.4776 21.817H61.8878V9.92322H58.4776V21.817ZM75.9264 3.88483C70.7756 3.88483 67.2162 7.84005 67.2162 12.9424C67.2162 18.0448 70.7685 22 75.9264 22C81.0843 22 84.6082 18.0377 84.6082 12.9424C84.6082 7.84708 81.0559 3.88483 75.9264 3.88483ZM75.9264 18.6219C72.6441 18.6219 70.6975 16.1868 70.6975 12.9424C70.6975 9.69801 72.6441 7.25591 75.9264 7.25591C79.2087 7.25591 81.1269 9.69098 81.1269 12.9424C81.1269 16.1939 79.1803 18.6219 75.9264 18.6219ZM75.9264 11.2182C76.2704 11.2196 76.6062 11.3219 76.8915 11.5122C77.1768 11.7025 77.3988 11.9722 77.5295 12.2874C77.6601 12.6026 77.6936 12.9491 77.6256 13.2831C77.5576 13.6171 77.3913 13.9237 77.1476 14.1641C76.9039 14.4045 76.5937 14.5681 76.2563 14.634C75.9188 14.7 75.5692 14.6654 75.2516 14.5347C74.9339 14.404 74.6625 14.183 74.4715 13.8996C74.2806 13.6162 74.1787 13.2831 74.1787 12.9424C74.1777 12.7151 74.2224 12.4899 74.3099 12.2798C74.3975 12.0698 74.5263 11.879 74.6889 11.7186C74.8515 11.5582 75.0446 11.4314 75.257 11.3455C75.4694 11.2596 75.697 11.2163 75.9264 11.2182ZM96.2383 21.7748H100.082L96.2383 15.1804C97.2876 14.7439 98.1764 13.999 98.785 13.0463C99.3935 12.0937 99.6924 10.9791 99.6414 9.85284C99.6414 6.60844 97.4177 4.01855 93.4178 4.01855H86.7822V7.26999H93.3397C93.6977 7.238 94.0586 7.28158 94.3984 7.39784C94.7382 7.5141 95.0493 7.70041 95.3111 7.94447C95.573 8.18854 95.7796 8.48481 95.9174 8.81376C96.0551 9.14271 96.1209 9.49686 96.1105 9.85284C96.1227 10.2108 96.0583 10.5673 95.9216 10.8989C95.785 11.2305 95.579 11.5298 95.3174 11.777C95.0557 12.0242 94.7443 12.2139 94.4034 12.3334C94.0626 12.453 93.7001 12.4999 93.3397 12.4709H86.7822V21.817H90.2279V15.7082H92.7145L96.2383 21.7748ZM103.499 4.60972H104.16L103.499 3.47664C103.681 3.40375 103.836 3.27648 103.942 3.11251C104.047 2.94854 104.099 2.75603 104.089 2.56174C104.094 2.42377 104.068 2.28641 104.015 2.1588C103.962 2.03119 103.882 1.91627 103.781 1.8217C103.679 1.72714 103.558 1.65509 103.427 1.61038C103.295 1.56566 103.155 1.54929 103.016 1.56238H101.879V2.11132H103.016C103.078 2.10524 103.14 2.11231 103.199 2.13205C103.257 2.15179 103.311 2.18374 103.356 2.22576C103.401 2.26777 103.436 2.31886 103.46 2.3756C103.483 2.43235 103.494 2.49341 103.492 2.5547C103.494 2.61626 103.483 2.67758 103.46 2.73464C103.436 2.7917 103.401 2.84319 103.356 2.88574C103.311 2.92829 103.258 2.96092 103.199 2.9815C103.14 3.00207 103.078 3.01012 103.016 3.00511H101.879V4.60972H102.462V3.56813H102.888L103.499 4.60972ZM103.016 6.36916C102.191 6.34158 101.41 5.99155 100.844 5.39552C100.278 4.79949 99.9737 4.0059 99.9967 3.1881C99.9682 2.77805 100.025 2.3666 100.164 1.9793C100.303 1.59199 100.521 1.23711 100.804 0.936701C101.087 0.636288 101.43 0.396757 101.81 0.232989C102.191 0.0692198 102.601 -0.0152893 103.016 -0.0152893C103.431 -0.0152893 103.841 0.0692198 104.222 0.232989C104.603 0.396757 104.945 0.636288 105.228 0.936701C105.511 1.23711 105.729 1.59199 105.868 1.9793C106.007 2.3666 106.064 2.77805 106.036 3.1881C106.06 4.00642 105.756 4.80107 105.19 5.39751C104.624 5.99395 103.842 6.34342 103.016 6.36916ZM103.016 0.401148C102.657 0.414711 102.305 0.498433 101.979 0.647492C101.653 0.796552 101.36 1.008 101.117 1.26967C100.874 1.53133 100.686 1.83803 100.563 2.17212C100.44 2.5062 100.385 2.86105 100.402 3.21625C100.383 3.56818 100.437 3.92017 100.56 4.25077C100.684 4.58138 100.873 4.88368 101.118 5.13928C101.363 5.39487 101.658 5.59841 101.985 5.7375C102.312 5.87659 102.664 5.94832 103.02 5.94832C103.375 5.94832 103.727 5.87659 104.054 5.7375C104.381 5.59841 104.676 5.39487 104.921 5.13928C105.166 4.88368 105.356 4.58138 105.479 4.25077C105.602 3.92017 105.656 3.56818 105.638 3.21625C105.653 2.86071 105.597 2.50569 105.473 2.17157C105.35 1.83745 105.161 1.53081 104.917 1.26924C104.674 1.00768 104.38 0.79635 104.054 0.647378C103.728 0.498406 103.375 0.414728 103.016 0.401148ZM101.879 3.95521H102.462V1.56238H101.879V3.95521Z" fill="white"/>
</svg>
