<svg width="85" height="85" viewBox="0 0 85 85" fill="none" xmlns="http://www.w3.org/2000/svg">
<path fill-rule="evenodd" clip-rule="evenodd" d="M57.5866 59.7097C54.1838 62.6899 49.9737 64.5944 45.4887 65.1824C41.0037 65.7703 36.445 65.0154 32.3889 63.013C28.3328 61.0107 24.9615 57.8507 22.701 53.9326C20.4405 50.0145 19.3923 45.5142 19.6891 41.0005C19.9858 36.4868 21.614 32.1625 24.3679 28.574C27.1219 24.9855 30.8779 22.2941 35.1612 20.8399C39.4445 19.3857 44.0628 19.234 48.4322 20.4041C52.8017 21.5741 56.7262 24.0133 59.7097 27.4134C63.7069 31.9794 65.7285 37.9453 65.3304 44.0008C64.9324 50.0562 62.1472 55.7061 57.5866 59.7097ZM67.7771 65.0172L78.7902 66.3175L83.4874 56.8171L75.7649 48.8558L76.3222 40.523L84.9204 33.6762L81.6032 23.645L70.537 23.4858L65.0172 17.2229L66.3441 6.2098L56.8171 1.51264L48.8558 9.23509L40.523 8.6778L33.6762 0L23.645 3.39682L23.4858 14.463L17.2229 19.9828L6.2098 18.5763L1.51264 28.183L9.23509 36.1442L8.6778 44.4771L0 51.3238L3.39682 61.355L14.463 61.5142L19.9828 67.7771L18.5763 78.7902L28.0768 83.4874L36.0381 75.7649L44.3709 76.3222L51.3238 84.9204L61.355 81.5236L61.5142 70.4574L67.7771 65.0172Z" fill="#242C31"/>
</svg>
