<svg width="130" height="114" viewBox="0 0 130 114" fill="none" xmlns="http://www.w3.org/2000/svg">
<path fill-rule="evenodd" clip-rule="evenodd" d="M52.42 90.9581C49.3225 93.6734 45.4901 95.4085 41.4075 95.9442C37.3248 96.4799 33.1752 95.7921 29.483 93.9678C25.7908 92.1434 22.722 89.2644 20.6643 85.6947C18.6066 82.125 17.6525 78.0248 17.9226 73.9124C18.1927 69.8 19.6748 65.8601 22.1817 62.5907C24.6885 59.3213 28.1076 56.8692 32.0065 55.5443C35.9055 54.2194 40.1095 54.0812 44.0869 55.1472C48.0644 56.2132 51.6368 58.4355 54.3525 61.5333C57.9912 65.6934 59.8314 71.1288 59.469 76.6459C59.1067 82.163 56.5714 87.3105 52.42 90.9581ZM61.6962 95.7937L71.7212 96.9785L75.9969 88.3227L68.9673 81.0692L69.4746 73.4773L77.3014 67.2393L74.2818 58.0275H64.2085L59.1839 52.2489L60.3917 42.2149L51.7436 37.9354L44.4966 44.9712L36.9114 44.4635L30.6548 36.5573L21.5236 39.6521L21.3787 49.7343L15.6777 54.7634L5.65266 53.5787L1.37693 62.2345L8.40653 69.4879L7.89924 77.0798L0 83.3178L3.09206 92.4571L13.1654 92.6022L18.19 98.3083L16.9097 108.342L25.5578 112.622L32.8048 105.586L40.39 106.094L46.6466 114L55.7778 110.905L55.9227 100.823L61.6962 95.7937Z" fill="#242C31"/>
<path d="M39.6654 92.5539C37.3445 92.6408 35.0299 92.2583 32.86 91.4293C30.6902 90.6003 28.7096 89.3418 27.0369 87.7291C25.3642 86.1163 24.0336 84.1825 23.1248 82.0432C22.216 79.904 21.7476 77.6032 21.7476 75.2786C21.7476 72.954 22.216 70.6532 23.1248 68.514C24.0336 66.3747 25.3642 64.4409 27.0369 62.8281C28.7096 61.2154 30.6902 59.9569 32.86 59.1279C35.0299 58.2989 37.3445 57.9164 39.6654 58.0033" stroke="#242C31" stroke-width="1.28" stroke-miterlimit="10"/>
<path fill-rule="evenodd" clip-rule="evenodd" d="M85.4905 35.0825C83.4916 36.8327 81.0192 37.9505 78.3857 38.2946C75.7522 38.6386 73.0759 38.1936 70.6951 37.0156C68.3143 35.8376 66.3359 33.9796 65.0099 31.6765C63.6839 29.3733 63.0699 26.7284 63.2454 24.0761C63.4209 21.4237 64.3782 18.883 65.9961 16.775C67.6141 14.667 69.8201 13.0865 72.3353 12.2331C74.8506 11.3798 77.5621 11.2919 80.1272 11.9807C82.6923 12.6694 84.9959 14.1038 86.7467 16.1026C89.0904 18.7882 90.2744 22.2945 90.0389 25.8525C89.8034 29.4105 88.1677 32.7299 85.4905 35.0825ZM91.4814 38.2015L97.9312 38.9752L100.685 33.39L96.1436 28.7236L96.4818 23.888L101.579 19.8744L99.5739 13.975H93.0757L89.8629 10.1065L90.6117 3.6509L85.0315 0.894592L80.3693 5.41591L75.538 5.10159L71.4555 0L65.5612 2.00679V8.51071L61.7928 11.7264L55.3188 10.9769L52.5891 16.562L57.1064 21.2284L56.7924 26.064L51.6711 30.1018L53.6761 36.0013H60.1743L63.4113 39.6763L62.6383 46.1319L68.2185 48.8882L72.8807 44.3669L77.712 44.6812L81.7221 49.7828L87.6163 47.8002V41.2963L91.4814 38.2015Z" fill="#242C31"/>
<path d="M77.3015 36.0979C74.4409 35.9645 71.7416 34.7331 69.7643 32.6597C67.7871 30.5863 66.6838 27.8302 66.6838 24.9639C66.6838 22.0976 67.7871 19.3415 69.7643 17.268C71.7416 15.1946 74.4409 13.9633 77.3015 13.8298" stroke="#242C31" stroke-width="0.83" stroke-miterlimit="10"/>
<path fill-rule="evenodd" clip-rule="evenodd" d="M97.1341 113.637H62.8075C61.0841 113.637 59.4312 112.952 58.2126 111.732C56.994 110.513 56.3093 108.858 56.3093 107.133V72.6553C56.3093 70.9303 56.994 69.276 58.2126 68.0563C59.4312 66.8366 61.0841 66.1514 62.8075 66.1514H97.1341C98.8575 66.1514 100.51 66.8366 101.729 68.0563C102.948 69.276 103.632 70.9303 103.632 72.6553V107.109C103.635 107.965 103.47 108.814 103.145 109.606C102.819 110.397 102.341 111.117 101.738 111.724C101.134 112.33 100.416 112.812 99.6265 113.14C98.8365 113.468 97.9895 113.637 97.1341 113.637ZM69.1848 100.605H90.636V79.1592H69.1848V100.605Z" fill="white"/>
<path fill-rule="evenodd" clip-rule="evenodd" d="M65.9721 103.821H93.8489V75.9434H65.9721V103.821ZM97.1342 110.397H62.8075C61.9362 110.397 61.1006 110.051 60.4845 109.434C59.8683 108.818 59.5222 107.981 59.5222 107.109V72.6552C59.5222 71.7831 59.8683 70.9467 60.4845 70.33C61.1006 69.7134 61.9362 69.3669 62.8075 69.3669H97.1342C97.5645 69.3669 97.9905 69.4522 98.3878 69.6177C98.785 69.7832 99.1456 70.0258 99.4487 70.3315C99.7519 70.6372 99.9916 70.9998 100.154 71.3986C100.317 71.7975 100.399 72.2245 100.395 72.6552V107.109C100.399 107.54 100.317 107.967 100.154 108.366C99.9916 108.764 99.7519 109.127 99.4487 109.433C99.1456 109.738 98.785 109.981 98.3878 110.147C97.9905 110.312 97.5645 110.397 97.1342 110.397Z" fill="#242C31"/>
<path fill-rule="evenodd" clip-rule="evenodd" d="M80.9973 86.7752L115.952 54.3281C116.723 53.5538 117.642 52.9432 118.655 52.5329C119.667 52.1226 120.752 51.921 121.844 51.9402C122.936 51.9594 124.013 52.1991 125.01 52.6448C126.007 53.0905 126.905 53.733 127.648 54.534C128.391 55.335 128.966 56.2779 129.336 57.3062C129.707 58.3346 129.866 59.4272 129.805 60.5187C129.744 61.6102 129.463 62.678 128.979 63.6583C128.496 64.6386 127.82 65.5112 126.992 66.2238L80.1277 109.744L66.9381 95.2375C66.2196 94.4438 65.6643 93.5161 65.304 92.5075C64.9436 91.499 64.7853 90.4292 64.838 89.3594C64.8907 88.2896 65.1535 87.2407 65.6112 86.2725C66.0689 85.3043 66.7127 84.4358 67.5058 83.7167C68.2989 82.9975 69.2257 82.4417 70.2334 82.0811C71.2411 81.7204 72.3098 81.5619 73.3787 81.6147C74.4476 81.6675 75.4956 81.9304 76.4629 82.3886C77.4302 82.8467 78.2979 83.4911 79.0165 84.2849L80.9973 86.7752Z" fill="white"/>
<path fill-rule="evenodd" clip-rule="evenodd" d="M80.321 102.926L70.4168 92.0946C70.0839 91.7855 69.8186 91.4107 69.6377 90.9938C69.4568 90.577 69.3642 90.1271 69.3657 89.6726C69.3673 89.2181 69.463 88.7689 69.6467 88.3533C69.8304 87.9377 70.0983 87.5647 70.4333 87.2579C70.7683 86.9511 71.1632 86.7171 71.5931 86.5708C72.023 86.4244 72.4785 86.3688 72.9309 86.4076C73.3834 86.4463 73.8229 86.5785 74.2217 86.7957C74.6205 87.013 74.97 87.3107 75.2481 87.67L80.6834 93.6178L119.165 57.8825C119.482 57.5888 119.854 57.3605 120.259 57.2107C120.665 57.0608 121.096 56.9924 121.528 57.0092C121.959 57.026 122.384 57.1279 122.776 57.3088C123.169 57.4897 123.522 57.7463 123.815 58.0638C124.109 58.3813 124.337 58.7536 124.486 59.1593C124.636 59.5651 124.704 59.9963 124.688 60.4285C124.671 60.8607 124.569 61.2854 124.388 61.6782C124.208 62.0711 123.951 62.4244 123.634 62.7181L80.321 102.926Z" fill="#242C31"/>
</svg>
