<svg width="87" height="44" viewBox="0 0 87 44" fill="none" xmlns="http://www.w3.org/2000/svg">
<path fill-rule="evenodd" clip-rule="evenodd" d="M0 10H16L7.98926 0L0 10Z" fill="white"/>
<line x1="2.5" y1="18" x2="2.5" y2="43" stroke="white"/>
<line x1="13.5" y1="18" x2="13.5" y2="34" stroke="white"/>
<circle cx="2.5" cy="42.5" r="1.5" fill="white"/>
<circle cx="13.5" cy="33.5" r="1.5" fill="white"/>
<path d="M30.888 22H33.288V14.128H36.48V22H38.88V4.672H36.48V12.112H33.288V4.672H30.888V22ZM40.0374 22H42.4374L43.2294 17.584H46.9734L47.7654 22H50.1654L46.6374 4.672H43.8534L40.0374 22ZM45.1014 7.216H45.1494L46.6374 15.568H43.5894L45.1014 7.216ZM51.3255 22H55.0935C58.5975 22 59.0775 20.8 59.0775 17.056C59.0775 14.104 58.6935 13.456 56.7735 13.096V13.048C58.4055 12.832 58.9575 12.28 58.9575 8.872C58.9575 5.704 58.4535 4.672 55.5015 4.672H51.3255V22ZM53.7255 13.984H55.2855C56.6055 13.984 56.8215 14.368 56.8215 16.984C56.8215 19.72 56.5815 20.128 55.2135 20.128H53.7255V13.984ZM53.7255 6.544H54.8535C56.3895 6.544 56.7015 7.024 56.7015 8.992C56.7015 11.824 56.5575 12.112 55.1175 12.112H53.7255V6.544ZM60.6536 22H67.1816V19.984H63.0536V14.128H66.9416V12.112H63.0536V6.688H67.1816V4.672H60.6536V22ZM70.6239 6.688H71.8719C73.5039 6.688 73.6719 6.952 73.6719 9.568C73.6719 12.184 73.5039 12.448 71.8719 12.448H70.6239V6.688ZM68.2239 22H70.6239V14.464H72.1839C75.4479 14.464 76.0719 13.576 76.0719 9.568C76.0719 5.56 75.4479 4.672 72.1839 4.672H68.2239V22ZM76.3873 22H78.7873L81.3313 15.64L83.6833 22H86.2273L82.6513 13.24L86.1073 4.672H83.7073L81.4513 10.768L79.1953 4.672H76.6513L80.1313 13L76.3873 22Z" fill="white"/>
</svg>
