<svg width="93" height="98" viewBox="0 0 93 98" fill="none" xmlns="http://www.w3.org/2000/svg">
<path fill-rule="evenodd" clip-rule="evenodd" d="M88.5949 77.5667H69.5267V73.0692H88.5949V77.5667ZM88.5949 85.6992H69.5267V81.2017H88.5949V85.6992ZM66.7542 77.5667H47.686V73.0692H66.7542V77.5667ZM66.7542 85.6992H47.686V81.2017H66.7542V85.6992ZM45.1908 77.5667H26.0301V73.0692H45.0984V77.5667H45.1908ZM45.1908 85.6992H26.0301V81.2017H45.0984V85.6992H45.1908ZM23.6274 77.5667H4.4051V73.0692H23.4733V77.5667H23.6274ZM23.6274 85.6992H4.4051V81.2017H23.4733V85.6992H23.6274ZM88.8721 57.9748L85.4836 0H77.5667L73.0692 57.636H68.1404L52.3683 48.6409V57.4203L34.9328 47.1315V57.636L17.3432 46.9159L17.5588 57.4203L0 47.5628V97.2819H93V58.0672L88.8721 57.9748Z" fill="#242C31"/>
</svg>
